# xmcd
#
# Track frame offsets:
# 150
# 17962
# 33277
# 47842
# 66205
# 84421
# 101021
# 113922
# 130641
# 144214
# 155496
# 171968
# 185865
# 198565
# 212181
# 227197
# 241957
# 253294
# 270484
#
# Disc length: 3814 seconds
#
#
# Revision: 0
# Processed by: cddbd v1.5.1PL2 Copyright (c) Steve Scherf et al.
# Submitted via: FreeRIP 2.942 
#
DISCID=150ee413
DTITLE=Chitãozinho e Xororó - Só Batidão
DYEAR=1900
DGENRE=Sertanejo
TTITLE0=Sistema Bruto
TTITLE1=Pura Emoção
TTITLE2=Vem ni mim
TTITLE3=Peão de Rodeio
TTITLE4=Sem Destino
TTITLE5=O Amor é Lindo
TTITLE6=Na aba do meu chapéu
TTITLE7=Quero você
TTITLE8=Coração de Cowboy
TTITLE9=Irmãos Coragem
TTITLE10=Tradição Gaúcha
TTITLE11=Nascemos para Cantar
TTITLE12=Rebola
TTITLE13=100% Adrenalina
TTITLE14=Pé na Estrada
TTITLE15=Galinhada
TTITLE16=60 dias Apaixonado
TTITLE17=Menina Linda
TTITLE18=Bailão de Peao
EXTD=
EXTT0=
EXTT1=
EXTT2=
EXTT3=
EXTT4=
EXTT5=
EXTT6=
EXTT7=
EXTT8=
EXTT9=
EXTT10=
EXTT11=
EXTT12=
EXTT13=
EXTT14=
EXTT15=
EXTT16=
EXTT17=
EXTT18=
PLAYORDER=
